<svg xmlns="http://www.w3.org/2000/svg" xmlns:xlink="http://www.w3.org/1999/xlink" version="1.1" width="1500" height="158" viewBox="0 0 1500 158"><svg xml:space="preserve" width="1500" height="158" data-version="2" data-id="lg_3LjOA98yoQCrTsbPCT" viewBox="0 0 681 158" x="0" y="0"><rect width="100%" height="100%" fill="transparent"/><path d="M242.87 97.074v12.19H198.9q-1.69 0-3.63-.4-1.95-.4-3.84-1.24-1.9-.85-3.64-2.18-1.73-1.34-3.07-3.24-1.33-1.9-2.13-4.4-.8-2.51-.8-5.65v-33q0-1.69.4-3.63.4-1.95 1.24-3.85.85-1.9 2.21-3.63 1.36-1.74 3.25-3.07 1.9-1.34 4.39-2.13 2.48-.8 5.62-.8h43.97v12.19H198.9q-2.39 0-3.65 1.26-1.27 1.27-1.27 3.75v32.91q0 2.34 1.29 3.63t3.63 1.29zm64.05-21.419v16.5q0 3.14-.8 5.65-.79 2.5-2.11 4.4-1.31 1.9-3.04 3.24-1.74 1.33-3.64 2.18-1.89.84-3.84 1.24t-3.68.4h-21.98q-2.54 0-5.54-.89t-5.55-2.93q-2.55-2.04-4.27-5.3-1.71-3.26-1.71-7.99v-16.5q0-4.69 1.71-7.95 1.72-3.26 4.27-5.29 2.55-2.04 5.55-2.93 3-.89 5.54-.89h21.98q4.69 0 7.97 1.68 3.28 1.69 5.3 4.25 2.01 2.55 2.93 5.55.91 3 .91 5.58m-12.19 16.5v-16.41q0-2.53-1.26-3.75-1.27-1.22-3.66-1.22h-21.89q-2.44 0-3.7 1.25-1.27 1.24-1.27 3.63v16.5q0 2.39 1.27 3.65 1.26 1.27 3.7 1.27h21.89q2.48 0 3.7-1.27 1.22-1.26 1.22-3.65m70.29 0q0 3.14-.8 5.65-.8 2.5-2.11 4.4-1.31 1.9-3.05 3.24-1.73 1.33-3.63 2.18-1.9.84-3.84 1.24-1.95.4-3.68.4h-33v-12.19h32.9q2.49 0 3.75-1.27 1.27-1.26 1.27-3.65-.24-4.88-4.92-4.88h-18.89q-4.04 0-6.85-1.4-2.81-1.41-4.57-3.52-1.76-2.11-2.53-4.55-.77-2.43-.77-4.54 0-4.08 1.45-6.87t3.66-4.52q2.2-1.74 4.78-2.51 2.58-.77 4.83-.77h29.95v12.18h-29.86q-.94 0-1.48.21t-.79.57q-.26.35-.31.75-.05.39-.05.77.05.75.29 1.17.23.42.58.61t.8.21q.44.03.87.03h18.89q4.68 0 7.96 1.68 3.29 1.69 5.3 4.25 2.02 2.55 2.93 5.55.92 3 .92 5.58m52.51-16.5v33.61h-12.18v-33.61q0-2.39-1.27-3.63-1.27-1.25-3.75-1.25h-15.84v38.49H372.3v-44.63q0-1.26.47-2.36.47-1.11 1.31-1.93.84-.82 1.97-1.29 1.12-.46 2.39-.46h21.98q2.53 0 5.44.89 2.91.89 5.53 2.86v-3.75h16.5q1.74 0 3.66.39 1.92.4 3.82 1.25 1.9.84 3.63 2.18 1.74 1.33 3.05 3.23 1.31 1.9 2.11 4.38.79 2.49.79 5.63v33.61h-12.18v-33.61q0-2.39-1.2-3.63-1.19-1.25-3.68-1.25h-10.97q.61 2.25.61 4.88m92.51 0v16.5q0 3.14-.8 5.65-.8 2.5-2.11 4.4-1.31 1.9-3.05 3.24-1.73 1.33-3.63 2.18-1.9.84-3.84 1.24-1.95.4-3.68.4h-21.99q-2.53 0-5.53-.89-3-.89-5.55-2.93-2.56-2.04-4.27-5.3-1.71-3.26-1.71-7.99v-16.5q0-4.69 1.71-7.95t4.27-5.29q2.55-2.04 5.55-2.93 3-.89 5.53-.89h21.99q4.68 0 7.96 1.68 3.29 1.69 5.3 4.25 2.02 2.55 2.93 5.55.92 3 .92 5.58m-12.19 16.5v-16.41q0-2.53-1.27-3.75-1.26-1.22-3.65-1.22h-21.89q-2.44 0-3.71 1.25-1.26 1.24-1.26 3.63v16.5q0 2.39 1.26 3.65 1.27 1.27 3.71 1.27h21.89q2.48 0 3.7-1.27 1.22-1.26 1.22-3.65m70.28 0q0 3.14-.8 5.65-.79 2.5-2.11 4.4-1.31 1.9-3.04 3.24-1.74 1.33-3.64 2.18-1.89.84-3.84 1.24-1.94.4-3.68.4h-33v-12.19h32.91q2.48 0 3.75-1.27 1.26-1.26 1.26-3.65-.23-4.88-4.92-4.88h-18.89q-4.03 0-6.84-1.4-2.82-1.41-4.57-3.52-1.76-2.11-2.53-4.55-.78-2.43-.78-4.54 0-4.08 1.46-6.87 1.45-2.79 3.65-4.52 2.2-1.74 4.78-2.51 2.58-.77 4.83-.77h29.95v12.18h-29.86q-.93 0-1.47.21-.54.21-.8.57-.26.35-.3.75-.05.39-.05.77.05.75.28 1.17.24.42.59.61t.79.21q.45.03.87.03h18.89q4.69 0 7.97 1.68 3.28 1.69 5.3 4.25 2.01 2.55 2.93 5.55.91 3 .91 5.58m48.79-50.111 20.53 24 20.53-24h16.64l-28.92 33.7 28.73 33.52h-16.55l-20.43-23.82-20.35 23.82h-16.59l28.69-33.52-28.78-33.7zM145.454 1.599a12.31 12.31 0 0 0-12.122 14.23c-7.029 4.75-16.202 12.002-26.694 21.14a54.864 54.864 0 0 0-44.114-1.389c-14.66-7.424-25.89-8.35-31.701-2.537-6.19 6.206-4.39 17.693 2.057 30.706a54.864 54.864 0 0 0 .309 46.806C1.505 147.16 5.808 151.515 7.694 153.401c.806.788 1.8 1.303 3.257 1.303 3.052 0 8.076-2.298 17.317-8.933 5.778-4.149 12.584-9.567 20.128-16.03a54.864 54.864 0 0 0 59.253 6.377c5.864 2.435 11.144 3.72 15.602 3.72 4.406 0 8.007-1.25 10.579-3.805 5.195-5.195 5.057-14.556-.343-27.055a54.864 54.864 0 0 0-7.493-56.699c8.83-10.252 15.877-19.288 20.334-26.146a12.31 12.31 0 0 0-.857-24.551M118.605 52.33a757.809 757.809 0 0 1-39.81 41.834 14.745 14.745 0 0 0-17.232.171c-10.235-11.058-17.693-21.568-22.46-30.57a49.72 49.72 0 0 1 43.892-26.574c13.973 0 26.574 5.812 35.61 15.122m-57.556 53.972a9.258 9.258 0 1 1 18.517.017 9.258 9.258 0 0 1-18.517-.017m-26.266-69.3c3.429-3.429 11.213-2.743 21.277 1.697A55.55 55.55 0 0 0 36.172 57.68c-4.252-9.944-4.664-17.42-1.372-20.694m22.974 61.482a14.745 14.745 0 0 0-.034 15.62q-4.886 4.457-9.258 8.263a49.378 49.378 0 0 1-12.156-52.275 166.307 166.307 0 0 0 21.431 28.392m-45.554 50.44c1.114-3.566 6.995-13.493 23.832-33.14a54.864 54.864 0 0 0 8.178 10.252c-17.694 15.088-28.118 21.723-32.027 22.889m70.774-12.516a49.378 49.378 0 0 1-30.278-10.356q4.27-3.737 8.796-7.835a14.745 14.745 0 0 0 17.488.068 138.874 138.874 0 0 0 22.014 14.728 49.72 49.72 0 0 1-18.002 3.395m46.908-4.286c-2.606 2.588-8.195 2.863-15.945.342a54.864 54.864 0 0 0 16.117-16.905c2.692 7.819 2.674 13.716-.172 16.563m2.692-45.298c0 18.431-10.115 34.548-25.1 43.086-7.115-3.24-15.482-8.401-24.672-15.705a14.745 14.745 0 0 0-.137-16.013l6.344-6.258a764.667 764.667 0 0 0 33.26-35.32c6.447 8.368 10.288 18.843 10.288 30.21M111.85 39.832a291.465 291.465 0 0 1 23.66-18.74 12.108 12.108 0 0 0 4.818 3.978 277.749 277.749 0 0 1-18.088 23.026 54.864 54.864 0 0 0-10.39-8.281m33.604-19.202a6.738 6.738 0 0 1 0-13.476 6.738 6.738 0 0 1 0 13.458" fill="#ff0080"/><circle r="2.88" transform="translate(145.25 56.17)scale(1.7145)" fill="#ff0080"/><circle r="5.94" transform="translate(108.54 104.1)scale(1.7145)" fill="#ff0080"/><circle r="1.25" transform="translate(72.86 127.29)scale(1.7145)" fill="#ff0080"/><circle r="1.25" transform="translate(121.47 74.86)scale(1.7145)" fill="#ff0080"/><circle r="1.86" transform="translate(70.72 49.8)scale(1.7145)" fill="#ff0080"/><circle r="1.86" transform="translate(42.91 100.9)scale(1.7145)" fill="#ff0080"/><circle r="3.32" transform="translate(73.22 74.86)scale(1.7145)" fill="#ff0080"/></svg></svg>